<svg width="56" height="56" viewBox="0 0 56 56" fill="none" xmlns="http://www.w3.org/2000/svg">
<path d="M28.6562 12.9231C31.1085 12.9231 34.1825 11.2142 36.0131 8.93579C37.671 6.87095 38.8799 3.98728 38.8799 1.10362C38.8799 0.712013 38.8453 0.320407 38.7762 0C36.0476 0.106802 32.7664 1.88684 30.7976 4.27209C29.2433 6.08773 27.8272 8.93579 27.8272 11.8551C27.8272 12.2823 27.8963 12.7095 27.9308 12.8519C28.1035 12.8875 28.3799 12.9231 28.6562 12.9231ZM20.0213 56C23.3716 56 24.8568 53.6859 29.0361 53.6859C33.2845 53.6859 34.217 55.9288 37.9473 55.9288C41.6085 55.9288 44.0608 52.4399 46.3749 49.0222C48.9654 45.1062 50.0361 41.2613 50.1052 41.0833C49.8634 41.0121 42.8519 38.0572 42.8519 29.7622C42.8519 22.5709 48.3782 19.3312 48.6891 19.082C45.0279 13.6707 39.467 13.5283 37.9473 13.5283C33.8371 13.5283 30.4868 16.0915 28.3799 16.0915C26.1002 16.0915 23.0953 13.6707 19.5377 13.6707C12.768 13.6707 5.89465 19.438 5.89465 30.3318C5.89465 37.096 8.45057 44.2517 11.5937 48.8798C14.2877 52.7959 16.6364 56 20.0213 56Z" fill="black"/>
</svg>
