<?xml version="1.0" standalone="no"?>
<!DOCTYPE svg PUBLIC "-//W3C//DTD SVG 20010904//EN"
 "http://www.w3.org/TR/2001/REC-SVG-20010904/DTD/svg10.dtd">
<svg version="1.0" xmlns="http://www.w3.org/2000/svg"
 width="512.000000pt" height="512.000000pt" viewBox="0 0 512.000000 512.000000"
 preserveAspectRatio="xMidYMid meet">
<metadata>
Created by potrace 1.14, written by Peter Selinger 2001-2017
</metadata>
<g transform="translate(0.000000,512.000000) scale(0.100000,-0.100000)"
fill="#000000" stroke="none">
<path d="M932 4563 c-18 -8 -43 -30 -55 -47 l-22 -31 -3 -1908 c-2 -2115 -7
-1950 62 -2000 l31 -22 1075 0 1075 0 31 22 c69 49 64 -113 64 1988 0 2101 5
1939 -64 1988 l-31 22 -1065 2 c-966 2 -1068 1 -1098 -14z m784 -606 l24 -28
0 -555 c0 -339 4 -554 9 -554 6 0 25 28 43 62 68 127 194 231 313 258 67 15
212 15 277 0 137 -32 267 -137 327 -264 64 -132 65 -151 66 -688 l0 -487 -23
-23 c-22 -22 -28 -23 -208 -23 l-186 0 -24 28 -24 28 0 428 c0 462 -2 483 -54
561 -14 22 -47 51 -73 66 -66 40 -192 46 -276 14 -71 -27 -124 -71 -148 -125
-17 -37 -19 -76 -19 -492 l0 -452 -24 -28 -24 -28 -186 0 c-180 0 -186 1 -208
23 l-23 23 0 1118 c0 1076 1 1120 19 1139 25 29 38 30 229 29 l169 -2 24 -28z
m1106 -2595 c20 -19 23 -33 23 -97 0 -64 -3 -78 -23 -97 l-23 -23 -774 0 -774
0 -23 23 c-20 19 -23 33 -23 96 0 80 15 110 59 119 11 3 362 4 778 3 l757 -1
23 -23z"/>
<path d="M3350 2564 c0 -1024 -3 -1883 -7 -1909 l-6 -48 52 6 c103 12 146 63
156 187 12 151 175 3323 175 3413 0 167 -46 201 -283 209 l-87 3 0 -1861z"/>
<path d="M3880 4238 c0 -68 -180 -3465 -186 -3510 l-6 -48 57 0 c90 0 145 40
164 120 6 25 88 776 181 1670 183 1744 177 1663 126 1718 -34 38 -67 50 -162
61 -49 6 -108 13 -131 17 l-43 5 0 -33z"/>
</g>
</svg>
