<?xml version="1.0" standalone="no"?>
<!DOCTYPE svg PUBLIC "-//W3C//DTD SVG 20010904//EN"
 "http://www.w3.org/TR/2001/REC-SVG-20010904/DTD/svg10.dtd">
<svg version="1.0" xmlns="http://www.w3.org/2000/svg"
 width="512.000000pt" height="512.000000pt" viewBox="0 0 512.000000 512.000000"
 preserveAspectRatio="xMidYMid meet">
<metadata>
Created by potrace 1.14, written by Peter Selinger 2001-2017
</metadata>
<g transform="translate(0.000000,512.000000) scale(0.100000,-0.100000)"
fill="#000000" stroke="none">
<path d="M487 3940 l-27 -21 0 -1129 0 -1129 26 -20 c25 -19 40 -21 204 -21
160 0 180 2 201 19 l24 19 5 469 5 468 24 42 c47 82 138 127 261 127 100 1
161 -23 210 -82 62 -74 64 -92 68 -579 l3 -443 26 -20 c24 -18 40 -20 205 -20
177 0 179 0 203 25 l25 24 0 475 c0 379 -3 490 -15 552 -58 303 -306 473 -615
423 -144 -23 -270 -117 -343 -257 -21 -40 -43 -70 -48 -67 -5 4 -9 227 -9 559
0 530 -1 555 -19 577 -19 23 -24 24 -203 27 -175 3 -185 2 -211 -18z"/>
<path d="M2471 3947 c-19 -7 -48 -29 -65 -50 l-31 -39 -3 -1303 c-2 -1029 0
-1310 10 -1340 8 -22 29 -51 51 -69 l39 -31 723 0 c715 0 724 0 751 21 15 11
37 33 48 48 21 27 21 32 24 1337 2 1449 7 1351 -64 1405 l-37 29 -706 2 c-530
2 -714 -1 -740 -10z"/>
<path d="M4396 3707 c9 -66 -113 -2363 -129 -2428 l-13 -57 44 -6 c106 -14
153 -4 200 46 12 14 27 39 31 56 5 17 62 535 127 1150 l118 1118 -22 45 c-31
64 -73 85 -202 98 -58 7 -117 14 -132 16 -27 4 -27 4 -22 -38z"/>
<path d="M405 1325 c-22 -21 -25 -33 -25 -95 0 -62 3 -74 25 -95 l24 -25 776
0 776 0 24 25 c22 21 25 33 25 95 0 62 -3 74 -25 95 l-24 25 -776 0 -776 0
-24 -25z"/>
</g>
</svg>
