    <svg
      width="172"
      height="127"
      viewBox="0 0 172 127"
      fill="none"
      xmlns="http://www.w3.org/2000/svg"
    >
      <path
        d="M68.3013 6.32956C68.9798 5.08599 70.5551 4.65415 71.773 5.37784L79.4768 9.9557C80.8838 10.7918 82.6825 10.5411 83.8073 9.3521L90.8798 1.87577C91.8924 0.805357 93.6064 0.838422 94.577 1.9471L99.3184 7.36324C100.484 8.69446 102.459 8.94664 103.922 7.95084L112.837 1.8805C114.183 0.964048 116.031 1.55829 116.591 3.08729L118.468 8.21284C119.16 10.1016 121.297 11.0201 123.144 10.222L132.527 6.16547C134.206 5.4395 136.071 6.70394 136.018 8.53265L135.898 12.6812C135.831 14.9759 137.954 16.7122 140.19 16.1914L148.69 14.2113C150.647 13.7555 152.315 15.6769 151.588 17.55L150.301 20.8691C149.386 23.2285 151.2 25.7491 153.728 25.6307L160.501 25.3135C162.623 25.2142 163.894 27.6388 162.605 29.3274L160.275 32.381C158.663 34.4935 159.901 37.5613 162.527 37.9638L167.461 38.72C169.599 39.0477 170.34 41.7516 168.669 43.1237L164.81 46.2903C162.756 47.976 163.256 51.246 165.72 52.2412L169.281 53.6796C171.251 54.475 171.394 57.2089 169.518 58.2054L163.53 61.3865C161.295 62.5737 161.02 65.6671 163.01 67.23L165.81 69.4288C167.39 70.6696 166.935 73.1729 165.02 73.7786L156.698 76.4099C154.51 77.102 153.568 79.6784 154.796 81.6184L157.015 85.1257C157.993 86.6717 157.034 88.7103 155.219 88.9422L145.079 90.2378C143.084 90.4927 141.713 92.3729 142.082 94.3503L143.081 99.7164C143.379 101.317 142.092 102.771 140.467 102.669L129.702 101.994C127.937 101.883 126.366 103.107 126.042 104.847L124.726 111.923C124.456 113.372 122.999 114.275 121.582 113.87L111.685 111.046C110.111 110.596 108.436 111.298 107.652 112.735L103.36 120.601C102.681 121.845 101.106 122.277 99.8884 121.553L92.1846 116.975C90.7775 116.139 88.9788 116.39 87.854 117.579L80.7815 125.055C79.7689 126.125 78.0549 126.092 77.0843 124.984L72.3429 119.568C71.1775 118.236 69.202 117.984 67.7395 118.98L58.8247 125.05C57.4788 125.967 55.63 125.373 55.0701 123.844L53.1931 118.718C52.5015 116.829 50.364 115.911 48.5177 116.709L39.1345 120.765C37.4552 121.491 35.5904 120.227 35.6435 118.398L35.7637 114.25C35.8302 111.955 33.7069 110.219 31.4711 110.739L22.9711 112.72C21.0145 113.175 19.3467 111.254 20.073 109.381L21.3602 106.062C22.2751 103.702 20.461 101.182 17.9332 101.3L11.1602 101.617C9.03839 101.717 7.76723 99.2921 9.05584 97.6034L11.386 94.5498C12.9981 92.4373 11.7605 89.3696 9.13386 88.967L4.19998 88.2108C2.06207 87.8831 1.32083 85.1792 2.99276 83.8071L6.85128 80.6406C8.90544 78.9548 8.40557 75.6848 5.9416 74.6897L2.37999 73.2513C0.410405 72.4558 0.267431 69.7219 2.14331 68.7254L8.13121 65.5443C10.366 64.3571 10.6411 61.2637 8.65088 59.7008L5.85113 57.5021C4.27112 56.2613 4.72595 53.7579 6.64146 53.1522L14.9629 50.5209C17.1517 49.8288 18.0928 47.2524 16.8654 45.3124L14.6464 41.8051C13.6683 40.2591 14.6275 38.2205 16.4422 37.9886L26.5823 36.6931C28.5775 36.4381 29.9478 34.558 29.5796 32.5805L28.5804 27.2144C28.2823 25.6136 29.5696 24.1596 31.1947 24.2616L41.9589 24.9372C43.7247 25.048 45.2955 23.8237 45.6191 22.0842L46.9357 15.0074C47.2052 13.5588 48.6627 12.6562 50.0796 13.0606L59.976 15.8852C61.5499 16.3344 63.2249 15.6328 64.0089 14.196L68.3013 6.32956Z"
        fill="#FDD015"
        stroke="#FDD015"
      />
    </svg>
