<svg width="96" height="96" viewBox="0 0 96 96" fill="none" xmlns="http://www.w3.org/2000/svg">
<g clip-path="url(#clip0_6_2)">
<path fill-rule="evenodd" clip-rule="evenodd" d="M49 -15.5C49 -15.7761 48.7761 -16 48.5 -16C48.2239 -16 48 -15.7761 48 -15.5V-13.9394C48 -13.6632 48.2239 -13.4394 48.5 -13.4394C48.7761 -13.4394 49 -13.6632 49 -13.9394V-15.5ZM49 -10.0606C49 -10.3367 48.7761 -10.5606 48.5 -10.5606C48.2239 -10.5606 48 -10.3367 48 -10.0606V-5.9394C48 -5.6633 48.2239 -5.4394 48.5 -5.4394C48.7761 -5.4394 49 -5.6633 49 -5.9394V-10.0606ZM49 -2.0606C49 -2.3367 48.7761 -2.5606 48.5 -2.5606C48.2239 -2.5606 48 -2.3367 48 -2.0606V2.0606C48 2.3367 48.2239 2.5606 48.5 2.5606C48.7761 2.5606 49 2.3367 49 2.0606V-2.0606ZM49 5.9394C49 5.6633 48.7761 5.4394 48.5 5.4394C48.2239 5.4394 48 5.6633 48 5.9394V10.0606C48 10.3367 48.2239 10.5606 48.5 10.5606C48.7761 10.5606 49 10.3367 49 10.0606V5.9394ZM49 13.9394C49 13.6633 48.7761 13.4394 48.5 13.4394C48.2239 13.4394 48 13.6633 48 13.9394V15.5H46.4394C46.1633 15.5 45.9394 15.7239 45.9394 16C45.9394 16.2761 46.1633 16.5 46.4394 16.5H48V18.0606C48 18.3368 48.2239 18.5606 48.5 18.5606C48.7761 18.5606 49 18.3368 49 18.0606V16.5H50.5606C50.8367 16.5 51.0606 16.2761 51.0606 16C51.0606 15.7239 50.8367 15.5 50.5606 15.5H49V13.9394ZM49 21.9394C49 21.6633 48.7761 21.4394 48.5 21.4394C48.2239 21.4394 48 21.6633 48 21.9394V26.0606C48 26.3368 48.2239 26.5606 48.5 26.5606C48.7761 26.5606 49 26.3368 49 26.0606V21.9394ZM49 29.9394C49 29.6633 48.7761 29.4394 48.5 29.4394C48.2239 29.4394 48 29.6633 48 29.9394V34.0606C48 34.3368 48.2239 34.5606 48.5 34.5606C48.7761 34.5606 49 34.3368 49 34.0606V29.9394ZM34.5606 15.5H30.4394C30.1633 15.5 29.9394 15.7239 29.9394 16C29.9394 16.2761 30.1633 16.5 30.4394 16.5H34.5606C34.8368 16.5 35.0606 16.2761 35.0606 16C35.0606 15.7239 34.8368 15.5 34.5606 15.5ZM38.4394 15.5C38.1632 15.5 37.9394 15.7239 37.9394 16C37.9394 16.2761 38.1632 16.5 38.4394 16.5H42.5606C42.8368 16.5 43.0606 16.2761 43.0606 16C43.0606 15.7239 42.8367 15.5 42.5606 15.5H38.4394ZM54.4394 15.5C54.1633 15.5 53.9394 15.7239 53.9394 16C53.9394 16.2761 54.1633 16.5 54.4394 16.5H58.5606C58.8367 16.5 59.0606 16.2761 59.0606 16C59.0606 15.7239 58.8367 15.5 58.5606 15.5H54.4394ZM62.4394 15.5C62.1633 15.5 61.9394 15.7239 61.9394 16C61.9394 16.2761 62.1633 16.5 62.4394 16.5H66.5606C66.8367 16.5 67.0606 16.2761 67.0606 16C67.0606 15.7239 66.8367 15.5 66.5606 15.5H62.4394ZM48 61.9394C48 61.6633 48.2239 61.4394 48.5 61.4394C48.7761 61.4394 49 61.6633 49 61.9394V66.0606C49 66.3367 48.7761 66.5606 48.5 66.5606C48.2239 66.5606 48 66.3367 48 66.0606V61.9394ZM48.5 69.4394C48.7761 69.4394 49 69.6633 49 69.9394V74.0606C49 74.3367 48.7761 74.5606 48.5 74.5606C48.2239 74.5606 48 74.3367 48 74.0606V69.9394C48 69.6633 48.2239 69.4394 48.5 69.4394ZM48.5 77.4394C48.7761 77.4394 49 77.6633 49 77.9394V79.5H50.5606C50.8367 79.5 51.0606 79.7239 51.0606 80C51.0606 80.2761 50.8367 80.5 50.5606 80.5H49V82.0606C49 82.3367 48.7761 82.5606 48.5 82.5606C48.2239 82.5606 48 82.3367 48 82.0606V80.5H46.4394C46.1633 80.5 45.9394 80.2761 45.9394 80C45.9394 79.7239 46.1633 79.5 46.4394 79.5H48V77.9394C48 77.6633 48.2239 77.4394 48.5 77.4394ZM48.5 85.439C48.7761 85.439 49 85.663 49 85.939V90.061C49 90.337 48.7761 90.561 48.5 90.561C48.2239 90.561 48 90.337 48 90.061V85.939C48 85.663 48.2239 85.439 48.5 85.439ZM48.5 93.439C48.7761 93.439 49 93.663 49 93.939V98.061C49 98.337 48.7761 98.561 48.5 98.561C48.2239 98.561 48 98.337 48 98.061V93.939C48 93.663 48.2239 93.439 48.5 93.439ZM48.5 101.439C48.7761 101.439 49 101.663 49 101.939V106.061C49 106.337 48.7761 106.561 48.5 106.561C48.2239 106.561 48 106.337 48 106.061V101.939C48 101.663 48.2239 101.439 48.5 101.439ZM48.5 109.439C48.7761 109.439 49 109.663 49 109.939V111.5C49 111.776 48.7761 112 48.5 112C48.2239 112 48 111.776 48 111.5V109.939C48 109.663 48.2239 109.439 48.5 109.439ZM30.4394 48.5C30.1633 48.5 29.9394 48.2761 29.9394 48C29.9394 47.7239 30.1633 47.5 30.4394 47.5H34.5606C34.8368 47.5 35.0606 47.7239 35.0606 48C35.0606 48.2761 34.8368 48.5 34.5606 48.5H30.4394ZM38.4394 47.5C38.1632 47.5 37.9394 47.7239 37.9394 48C37.9394 48.2761 38.1632 48.5 38.4394 48.5H42.5606C42.8368 48.5 43.0606 48.2761 43.0606 48C43.0606 47.7239 42.8367 47.5 42.5606 47.5H38.4394ZM46.4394 47.5C46.1633 47.5 45.9394 47.7239 45.9394 48C45.9394 48.2761 46.1633 48.5 46.4394 48.5H48V50.0606C48 50.3367 48.2239 50.5606 48.5 50.5606C48.7761 50.5606 49 50.3367 49 50.0606V48.5H50.5606C50.8367 48.5 51.0606 48.2761 51.0606 48C51.0606 47.7239 50.8367 47.5 50.5606 47.5H49V45.9394C49 45.6633 48.7761 45.4394 48.5 45.4394C48.2239 45.4394 48 45.6633 48 45.9394V47.5H46.4394ZM54.4394 47.5C54.1633 47.5 53.9394 47.7239 53.9394 48C53.9394 48.2761 54.1633 48.5 54.4394 48.5H58.5606C58.8367 48.5 59.0606 48.2761 59.0606 48C59.0606 47.7239 58.8367 47.5 58.5606 47.5H54.4394ZM62.4394 47.5C62.1633 47.5 61.9394 47.7239 61.9394 48C61.9394 48.2761 62.1633 48.5 62.4394 48.5H66.5606C66.8367 48.5 67.0606 48.2761 67.0606 48C67.0606 47.7239 66.8367 47.5 66.5606 47.5H62.4394ZM30.4394 80.5H34.5606C34.8368 80.5 35.0606 80.2761 35.0606 80C35.0606 79.7239 34.8368 79.5 34.5606 79.5H30.4394C30.1633 79.5 29.9394 79.7239 29.9394 80C29.9394 80.2761 30.1633 80.5 30.4394 80.5ZM37.9394 80C37.9394 79.7239 38.1632 79.5 38.4394 79.5H42.5606C42.8367 79.5 43.0606 79.7239 43.0606 80C43.0606 80.2761 42.8368 80.5 42.5606 80.5H38.4394C38.1632 80.5 37.9394 80.2761 37.9394 80ZM53.9394 80C53.9394 79.7239 54.1633 79.5 54.4394 79.5H58.5606C58.8367 79.5 59.0606 79.7239 59.0606 80C59.0606 80.2761 58.8367 80.5 58.5606 80.5H54.4394C54.1633 80.5 53.9394 80.2761 53.9394 80ZM61.9394 80C61.9394 79.7239 62.1633 79.5 62.4394 79.5H66.5606C66.8367 79.5 67.0606 79.7239 67.0606 80C67.0606 80.2761 66.8367 80.5 66.5606 80.5H62.4394C62.1633 80.5 61.9394 80.2761 61.9394 80ZM49 37.9394C49 37.6632 48.7761 37.4394 48.5 37.4394C48.2239 37.4394 48 37.6632 48 37.9394V42.0606C48 42.3368 48.2239 42.5606 48.5 42.5606C48.7761 42.5606 49 42.3367 49 42.0606V37.9394ZM49 53.9394C49 53.6633 48.7761 53.4394 48.5 53.4394C48.2239 53.4394 48 53.6633 48 53.9394V58.0606C48 58.3367 48.2239 58.5606 48.5 58.5606C48.7761 58.5606 49 58.3367 49 58.0606V53.9394ZM80 29.9394V34.0606C80 34.3368 80.2239 34.5606 80.5 34.5606C80.7761 34.5606 81 34.3368 81 34.0606V29.9394C81 29.6633 80.7761 29.4394 80.5 29.4394C80.2239 29.4394 80 29.6633 80 29.9394ZM80.5 37.4394C80.7761 37.4394 81 37.6632 81 37.9394V42.0606C81 42.3367 80.7761 42.5606 80.5 42.5606C80.2239 42.5606 80 42.3368 80 42.0606V37.9394C80 37.6632 80.2239 37.4394 80.5 37.4394ZM80.5 45.4394C80.7761 45.4394 81 45.6633 81 45.9394V47.5H82.5606C82.8367 47.5 83.0606 47.7239 83.0606 48C83.0606 48.2761 82.8367 48.5 82.5606 48.5H81V50.0606C81 50.3367 80.7761 50.5606 80.5 50.5606C80.2239 50.5606 80 50.3367 80 50.0606V48.5H78.4394C78.1632 48.5 77.9394 48.2761 77.9394 48C77.9394 47.7239 78.1633 47.5 78.4394 47.5H80V45.9394C80 45.6633 80.2239 45.4394 80.5 45.4394ZM80.5 53.4394C80.7761 53.4394 81 53.6633 81 53.9394V58.0606C81 58.3367 80.7761 58.5606 80.5 58.5606C80.2239 58.5606 80 58.3367 80 58.0606V53.9394C80 53.6633 80.2239 53.4394 80.5 53.4394ZM80.5 61.4394C80.7761 61.4394 81 61.6633 81 61.9394V66.0606C81 66.3367 80.7761 66.5606 80.5 66.5606C80.2239 66.5606 80 66.3367 80 66.0606V61.9394C80 61.6633 80.2239 61.4394 80.5 61.4394ZM16 29.9394C16 29.6633 16.2239 29.4394 16.5 29.4394C16.7761 29.4394 17 29.6633 17 29.9394V34.0606C17 34.3368 16.7761 34.5606 16.5 34.5606C16.2239 34.5606 16 34.3368 16 34.0606V29.9394ZM17 37.9394C17 37.6632 16.7761 37.4394 16.5 37.4394C16.2239 37.4394 16 37.6632 16 37.9394V42.0606C16 42.3368 16.2239 42.5606 16.5 42.5606C16.7761 42.5606 17 42.3367 17 42.0606V37.9394ZM17 45.9394C17 45.6633 16.7761 45.4394 16.5 45.4394C16.2239 45.4394 16 45.6633 16 45.9394V47.5H14.4394C14.1633 47.5 13.9394 47.7239 13.9394 48C13.9394 48.2761 14.1633 48.5 14.4394 48.5H16V50.0606C16 50.3367 16.2239 50.5606 16.5 50.5606C16.7761 50.5606 17 50.3367 17 50.0606V48.5H18.5606C18.8368 48.5 19.0606 48.2761 19.0606 48C19.0606 47.7239 18.8368 47.5 18.5606 47.5H17V45.9394ZM17 53.9394C17 53.6633 16.7761 53.4394 16.5 53.4394C16.2239 53.4394 16 53.6633 16 53.9394V58.0606C16 58.3367 16.2239 58.5606 16.5 58.5606C16.7761 58.5606 17 58.3367 17 58.0606V53.9394ZM17 61.9394C17 61.6633 16.7761 61.4394 16.5 61.4394C16.2239 61.4394 16 61.6633 16 61.9394V66.0606C16 66.3367 16.2239 66.5606 16.5 66.5606C16.7761 66.5606 17 66.3367 17 66.0606V61.9394ZM-15.5 16C-15.5 15.7239 -15.2761 15.5 -15 15.5H-13.4394C-13.1632 15.5 -12.9394 15.7239 -12.9394 16C-12.9394 16.2761 -13.1632 16.5 -13.4394 16.5H-15C-15.2761 16.5 -15.5 16.2761 -15.5 16ZM-10.0606 16C-10.0606 15.7239 -9.83675 15.5 -9.56061 15.5H-5.4394C-5.1633 15.5 -4.9394 15.7239 -4.9394 16C-4.9394 16.2761 -5.1633 16.5 -5.4394 16.5H-9.56061C-9.83675 16.5 -10.0606 16.2761 -10.0606 16ZM-2.0606 16C-2.0606 15.7239 -1.8367 15.5 -1.5606 15.5H2.5606C2.8367 15.5 3.0606 15.7239 3.0606 16C3.0606 16.2761 2.8367 16.5 2.5606 16.5H-1.5606C-1.8367 16.5 -2.0606 16.2761 -2.0606 16ZM5.9394 16C5.9394 15.7239 6.1633 15.5 6.4394 15.5H10.5606C10.8367 15.5 11.0606 15.7239 11.0606 16C11.0606 16.2761 10.8367 16.5 10.5606 16.5H6.4394C6.1633 16.5 5.9394 16.2761 5.9394 16ZM13.9394 16C13.9394 15.7239 14.1633 15.5 14.4394 15.5H16V13.9394C16 13.6633 16.2239 13.4394 16.5 13.4394C16.7761 13.4394 17 13.6633 17 13.9394V15.5H18.5606C18.8368 15.5 19.0606 15.7239 19.0606 16C19.0606 16.2761 18.8368 16.5 18.5606 16.5H17V18.0606C17 18.3368 16.7761 18.5606 16.5 18.5606C16.2239 18.5606 16 18.3368 16 18.0606V16.5H14.4394C14.1633 16.5 13.9394 16.2761 13.9394 16ZM21.9394 16C21.9394 15.7239 22.1633 15.5 22.4394 15.5H26.5606C26.8368 15.5 27.0606 15.7239 27.0606 16C27.0606 16.2761 26.8368 16.5 26.5606 16.5H22.4394C22.1633 16.5 21.9394 16.2761 21.9394 16ZM-15 47.5C-15.2761 47.5 -15.5 47.7239 -15.5 48C-15.5 48.2761 -15.2761 48.5 -15 48.5H-13.4394C-13.1632 48.5 -12.9394 48.2761 -12.9394 48C-12.9394 47.7239 -13.1632 47.5 -13.4394 47.5H-15ZM-9.56061 47.5C-9.83675 47.5 -10.0606 47.7239 -10.0606 48C-10.0606 48.2761 -9.83675 48.5 -9.56061 48.5H-5.4394C-5.1633 48.5 -4.9394 48.2761 -4.9394 48C-4.9394 47.7239 -5.1633 47.5 -5.4394 47.5H-9.56061ZM-1.5606 47.5C-1.8367 47.5 -2.0606 47.7239 -2.0606 48C-2.0606 48.2761 -1.8367 48.5 -1.5606 48.5H2.5606C2.8367 48.5 3.0606 48.2761 3.0606 48C3.0606 47.7239 2.8367 47.5 2.5606 47.5H-1.5606ZM6.4394 47.5C6.1633 47.5 5.9394 47.7239 5.9394 48C5.9394 48.2761 6.1633 48.5 6.4394 48.5H10.5606C10.8367 48.5 11.0606 48.2761 11.0606 48C11.0606 47.7239 10.8367 47.5 10.5606 47.5H6.4394ZM22.4394 47.5C22.1633 47.5 21.9394 47.7239 21.9394 48C21.9394 48.2761 22.1633 48.5 22.4394 48.5H26.5606C26.8368 48.5 27.0606 48.2761 27.0606 48C27.0606 47.7239 26.8368 47.5 26.5606 47.5H22.4394ZM-15.5 80C-15.5 79.7239 -15.2761 79.5 -15 79.5H-13.4394C-13.1632 79.5 -12.9394 79.7239 -12.9394 80C-12.9394 80.2761 -13.1632 80.5 -13.4394 80.5H-15C-15.2761 80.5 -15.5 80.2761 -15.5 80ZM-10.0606 80C-10.0606 79.7239 -9.83675 79.5 -9.56061 79.5H-5.4394C-5.1633 79.5 -4.9394 79.7239 -4.9394 80C-4.9394 80.2761 -5.1633 80.5 -5.4394 80.5H-9.56061C-9.83675 80.5 -10.0606 80.2761 -10.0606 80ZM-2.0606 80C-2.0606 79.7239 -1.8367 79.5 -1.5606 79.5H2.5606C2.8367 79.5 3.0606 79.7239 3.0606 80C3.0606 80.2761 2.8367 80.5 2.5606 80.5H-1.5606C-1.8367 80.5 -2.0606 80.2761 -2.0606 80ZM5.9394 80C5.9394 79.7239 6.1633 79.5 6.4394 79.5H10.5606C10.8367 79.5 11.0606 79.7239 11.0606 80C11.0606 80.2761 10.8367 80.5 10.5606 80.5H6.4394C6.1633 80.5 5.9394 80.2761 5.9394 80ZM13.9394 80C13.9394 79.7239 14.1633 79.5 14.4394 79.5H16V77.9394C16 77.6632 16.2239 77.4394 16.5 77.4394C16.7761 77.4394 17 77.6633 17 77.9394V79.5H18.5606C18.8368 79.5 19.0606 79.7239 19.0606 80C19.0606 80.2761 18.8368 80.5 18.5606 80.5H17V82.0606C17 82.3367 16.7761 82.5606 16.5 82.5606C16.2239 82.5606 16 82.3367 16 82.0606V80.5H14.4394C14.1633 80.5 13.9394 80.2761 13.9394 80ZM21.9394 80C21.9394 79.7239 22.1633 79.5 22.4394 79.5H26.5606C26.8368 79.5 27.0606 79.7239 27.0606 80C27.0606 80.2761 26.8368 80.5 26.5606 80.5H22.4394C22.1633 80.5 21.9394 80.2761 21.9394 80ZM112 15.5C112.276 15.5 112.5 15.7239 112.5 16C112.5 16.2761 112.276 16.5 112 16.5H110.439C110.163 16.5 109.939 16.2761 109.939 16C109.939 15.7239 110.163 15.5 110.439 15.5H112ZM106.561 15.5C106.837 15.5 107.061 15.7239 107.061 16C107.061 16.2761 106.837 16.5 106.561 16.5H102.439C102.163 16.5 101.939 16.2761 101.939 16C101.939 15.7239 102.163 15.5 102.439 15.5H106.561ZM98.561 15.5C98.837 15.5 99.061 15.7239 99.061 16C99.061 16.2761 98.837 16.5 98.561 16.5H94.439C94.163 16.5 93.939 16.2761 93.939 16C93.939 15.7239 94.163 15.5 94.439 15.5H98.561ZM90.561 15.5C90.837 15.5 91.061 15.7239 91.061 16C91.061 16.2761 90.837 16.5 90.561 16.5H86.439C86.163 16.5 85.939 16.2761 85.939 16C85.939 15.7239 86.163 15.5 86.439 15.5H90.561ZM82.5606 15.5C82.8367 15.5 83.0606 15.7239 83.0606 16C83.0606 16.2761 82.8367 16.5 82.5606 16.5H81V18.0606C81 18.3368 80.7761 18.5606 80.5 18.5606C80.2239 18.5606 80 18.3368 80 18.0606V16.5H78.4394C78.1632 16.5 77.9394 16.2761 77.9394 16C77.9394 15.7239 78.1633 15.5 78.4394 15.5H80V13.9394C80 13.6633 80.2239 13.4394 80.5 13.4394C80.7761 13.4394 81 13.6633 81 13.9394V15.5H82.5606ZM74.5606 15.5C74.8367 15.5 75.0606 15.7239 75.0606 16C75.0606 16.2761 74.8367 16.5 74.5606 16.5H70.4394C70.1632 16.5 69.9394 16.2761 69.9394 16C69.9394 15.7239 70.1633 15.5 70.4394 15.5H74.5606ZM112.5 48C112.5 47.7239 112.276 47.5 112 47.5H110.439C110.163 47.5 109.939 47.7239 109.939 48C109.939 48.2761 110.163 48.5 110.439 48.5H112C112.276 48.5 112.5 48.2761 112.5 48ZM107.061 48C107.061 47.7239 106.837 47.5 106.561 47.5H102.439C102.163 47.5 101.939 47.7239 101.939 48C101.939 48.2761 102.163 48.5 102.439 48.5H106.561C106.837 48.5 107.061 48.2761 107.061 48ZM99.061 48C99.061 47.7239 98.837 47.5 98.561 47.5H94.439C94.163 47.5 93.939 47.7239 93.939 48C93.939 48.2761 94.163 48.5 94.439 48.5H98.561C98.837 48.5 99.061 48.2761 99.061 48ZM91.061 48C91.061 47.7239 90.837 47.5 90.561 47.5H86.439C86.163 47.5 85.939 47.7239 85.939 48C85.939 48.2761 86.163 48.5 86.439 48.5H90.561C90.837 48.5 91.061 48.2761 91.061 48ZM75.0606 48C75.0606 47.7239 74.8367 47.5 74.5606 47.5H70.4394C70.1633 47.5 69.9394 47.7239 69.9394 48C69.9394 48.2761 70.1632 48.5 70.4394 48.5H74.5606C74.8367 48.5 75.0606 48.2761 75.0606 48ZM17 -15.5C17 -15.7761 16.7761 -16 16.5 -16C16.2239 -16 16 -15.7761 16 -15.5V-13.9394C16 -13.6632 16.2239 -13.4394 16.5 -13.4394C16.7761 -13.4394 17 -13.6632 17 -13.9394V-15.5ZM17 -10.0606C17 -10.3367 16.7761 -10.5606 16.5 -10.5606C16.2239 -10.5606 16 -10.3367 16 -10.0606V-5.9394C16 -5.6633 16.2239 -5.4394 16.5 -5.4394C16.7761 -5.4394 17 -5.6633 17 -5.9394V-10.0606ZM17 -2.0606C17 -2.3367 16.7761 -2.5606 16.5 -2.5606C16.2239 -2.5606 16 -2.3367 16 -2.0606V2.0606C16 2.3367 16.2239 2.5606 16.5 2.5606C16.7761 2.5606 17 2.3367 17 2.0606V-2.0606ZM17 5.9394C17 5.6633 16.7761 5.4394 16.5 5.4394C16.2239 5.4394 16 5.6633 16 5.9394V10.0606C16 10.3367 16.2239 10.5606 16.5 10.5606C16.7761 10.5606 17 10.3367 17 10.0606V5.9394ZM17 21.9394C17 21.6633 16.7761 21.4394 16.5 21.4394C16.2239 21.4394 16 21.6633 16 21.9394V26.0606C16 26.3368 16.2239 26.5606 16.5 26.5606C16.7761 26.5606 17 26.3368 17 26.0606V21.9394ZM80.5 -16C80.2239 -16 80 -15.7761 80 -15.5V-13.9394C80 -13.6632 80.2239 -13.4394 80.5 -13.4394C80.7761 -13.4394 81 -13.6632 81 -13.9394V-15.5C81 -15.7761 80.7761 -16 80.5 -16ZM80.5 -10.5606C80.2239 -10.5606 80 -10.3367 80 -10.0606V-5.9394C80 -5.6633 80.2239 -5.4394 80.5 -5.4394C80.7761 -5.4394 81 -5.6633 81 -5.9394V-10.0606C81 -10.3367 80.7761 -10.5606 80.5 -10.5606ZM80.5 -2.5606C80.2239 -2.5606 80 -2.3367 80 -2.0606V2.0606C80 2.3367 80.2239 2.5606 80.5 2.5606C80.7761 2.5606 81 2.3367 81 2.0606V-2.0606C81 -2.3367 80.7761 -2.5606 80.5 -2.5606ZM80.5 5.4394C80.2239 5.4394 80 5.6633 80 5.9394V10.0606C80 10.3367 80.2239 10.5606 80.5 10.5606C80.7761 10.5606 81 10.3367 81 10.0606V5.9394C81 5.6633 80.7761 5.4394 80.5 5.4394ZM80.5 21.4394C80.2239 21.4394 80 21.6633 80 21.9394V26.0606C80 26.3368 80.2239 26.5606 80.5 26.5606C80.7761 26.5606 81 26.3368 81 26.0606V21.9394C81 21.6633 80.7761 21.4394 80.5 21.4394ZM17 111.5C17 111.776 16.7761 112 16.5 112C16.2239 112 16 111.776 16 111.5V109.939C16 109.663 16.2239 109.439 16.5 109.439C16.7761 109.439 17 109.663 17 109.939V111.5ZM17 106.061C17 106.337 16.7761 106.561 16.5 106.561C16.2239 106.561 16 106.337 16 106.061V101.939C16 101.663 16.2239 101.439 16.5 101.439C16.7761 101.439 17 101.663 17 101.939V106.061ZM17 98.061C17 98.337 16.7761 98.561 16.5 98.561C16.2239 98.561 16 98.337 16 98.061V93.939C16 93.663 16.2239 93.439 16.5 93.439C16.7761 93.439 17 93.663 17 93.939V98.061ZM17 90.061C17 90.337 16.7761 90.561 16.5 90.561C16.2239 90.561 16 90.337 16 90.061V85.939C16 85.663 16.2239 85.439 16.5 85.439C16.7761 85.439 17 85.663 17 85.939V90.061ZM17 74.0606C17 74.3367 16.7761 74.5606 16.5 74.5606C16.2239 74.5606 16 74.3367 16 74.0606V69.9394C16 69.6632 16.2239 69.4394 16.5 69.4394C16.7761 69.4394 17 69.6633 17 69.9394V74.0606ZM80.5 112C80.2239 112 80 111.776 80 111.5V109.939C80 109.663 80.2239 109.439 80.5 109.439C80.7761 109.439 81 109.663 81 109.939V111.5C81 111.776 80.7761 112 80.5 112ZM80.5 106.561C80.2239 106.561 80 106.337 80 106.061V101.939C80 101.663 80.2239 101.439 80.5 101.439C80.7761 101.439 81 101.663 81 101.939V106.061C81 106.337 80.7761 106.561 80.5 106.561ZM80.5 98.561C80.2239 98.561 80 98.337 80 98.061V93.939C80 93.663 80.2239 93.439 80.5 93.439C80.7761 93.439 81 93.663 81 93.939V98.061C81 98.337 80.7761 98.561 80.5 98.561ZM80.5 90.561C80.2239 90.561 80 90.337 80 90.061V85.939C80 85.663 80.2239 85.439 80.5 85.439C80.7761 85.439 81 85.663 81 85.939V90.061C81 90.337 80.7761 90.561 80.5 90.561ZM80.5 82.5606C80.2239 82.5606 80 82.3367 80 82.0606V80.5H78.4394C78.1632 80.5 77.9394 80.2761 77.9394 80C77.9394 79.7239 78.1633 79.5 78.4394 79.5H80V77.9394C80 77.6633 80.2239 77.4394 80.5 77.4394C80.7761 77.4394 81 77.6632 81 77.9394V79.5H82.5606C82.8367 79.5 83.0606 79.7239 83.0606 80C83.0606 80.2761 82.8367 80.5 82.5606 80.5H81V82.0606C81 82.3367 80.7761 82.5606 80.5 82.5606ZM80.5 74.5606C80.2239 74.5606 80 74.3367 80 74.0606V69.9394C80 69.6633 80.2239 69.4394 80.5 69.4394C80.7761 69.4394 81 69.6632 81 69.9394V74.0606C81 74.3367 80.7761 74.5606 80.5 74.5606ZM112 79.5C112.276 79.5 112.5 79.7239 112.5 80C112.5 80.2761 112.276 80.5 112 80.5H110.439C110.163 80.5 109.939 80.2761 109.939 80C109.939 79.7239 110.163 79.5 110.439 79.5H112ZM106.561 79.5C106.837 79.5 107.061 79.7239 107.061 80C107.061 80.2761 106.837 80.5 106.561 80.5H102.439C102.163 80.5 101.939 80.2761 101.939 80C101.939 79.7239 102.163 79.5 102.439 79.5H106.561ZM98.561 79.5C98.837 79.5 99.061 79.7239 99.061 80C99.061 80.2761 98.837 80.5 98.561 80.5H94.439C94.163 80.5 93.939 80.2761 93.939 80C93.939 79.7239 94.163 79.5 94.439 79.5H98.561ZM90.561 79.5C90.837 79.5 91.061 79.7239 91.061 80C91.061 80.2761 90.837 80.5 90.561 80.5H86.439C86.163 80.5 85.939 80.2761 85.939 80C85.939 79.7239 86.163 79.5 86.439 79.5H90.561ZM74.5606 79.5C74.8367 79.5 75.0606 79.7239 75.0606 80C75.0606 80.2761 74.8367 80.5 74.5606 80.5H70.4394C70.1632 80.5 69.9394 80.2761 69.9394 80C69.9394 79.7239 70.1633 79.5 70.4394 79.5H74.5606Z" fill="#E6E6E6"/>
</g>
<defs>
<clipPath id="clip0_6_2">
<rect width="96" height="96" fill="white"/>
</clipPath>
</defs>
</svg>
