<svg width="128" height="128" viewBox="0 0 128 128" fill="none" xmlns="http://www.w3.org/2000/svg">
<path fill-rule="evenodd" clip-rule="evenodd" d="M65 0.5C65 0.223858 64.7761 0 64.5 0C64.2239 0 64 0.223858 64 0.5V2.06061C64 2.33675 64.2239 2.56061 64.5 2.56061C64.7761 2.56061 65 2.33675 65 2.06061V0.5ZM65 5.93939C65 5.66325 64.7761 5.43939 64.5 5.43939C64.2239 5.43939 64 5.66325 64 5.93939V10.0606C64 10.3367 64.2239 10.5606 64.5 10.5606C64.7761 10.5606 65 10.3367 65 10.0606V5.93939ZM65 13.9394C65 13.6633 64.7761 13.4394 64.5 13.4394C64.2239 13.4394 64 13.6633 64 13.9394V18.0606C64 18.3367 64.2239 18.5606 64.5 18.5606C64.7761 18.5606 65 18.3367 65 18.0606V13.9394ZM65 21.9394C65 21.6633 64.7761 21.4394 64.5 21.4394C64.2239 21.4394 64 21.6633 64 21.9394V26.0606C64 26.3367 64.2239 26.5606 64.5 26.5606C64.7761 26.5606 65 26.3367 65 26.0606V21.9394ZM65 29.9394C65 29.6633 64.7761 29.4394 64.5 29.4394C64.2239 29.4394 64 29.6633 64 29.9394V31.5H62.4394C62.1633 31.5 61.9394 31.7239 61.9394 32C61.9394 32.2761 62.1633 32.5 62.4394 32.5H64V34.0606C64 34.3368 64.2239 34.5606 64.5 34.5606C64.7761 34.5606 65 34.3368 65 34.0606V32.5H66.5606C66.8367 32.5 67.0606 32.2761 67.0606 32C67.0606 31.7239 66.8367 31.5 66.5606 31.5H65V29.9394ZM65 37.9394C65 37.6633 64.7761 37.4394 64.5 37.4394C64.2239 37.4394 64 37.6633 64 37.9394V42.0606C64 42.3368 64.2239 42.5606 64.5 42.5606C64.7761 42.5606 65 42.3368 65 42.0606V37.9394ZM65 45.9394C65 45.6633 64.7761 45.4394 64.5 45.4394C64.2239 45.4394 64 45.6633 64 45.9394L64 50.0606C64 50.3368 64.2239 50.5606 64.5 50.5606C64.7761 50.5606 65 50.3368 65 50.0606V45.9394ZM50.5606 31.5L46.4394 31.5C46.1633 31.5 45.9394 31.7239 45.9394 32C45.9394 32.2761 46.1633 32.5 46.4394 32.5L50.5606 32.5C50.8368 32.5 51.0606 32.2761 51.0606 32C51.0606 31.7239 50.8368 31.5 50.5606 31.5ZM54.4394 31.5C54.1632 31.5 53.9394 31.7239 53.9394 32C53.9394 32.2761 54.1632 32.5 54.4394 32.5H58.5606C58.8368 32.5 59.0606 32.2761 59.0606 32C59.0606 31.7239 58.8367 31.5 58.5606 31.5H54.4394ZM70.4394 31.5C70.1633 31.5 69.9394 31.7239 69.9394 32C69.9394 32.2761 70.1633 32.5 70.4394 32.5H74.5606C74.8367 32.5 75.0606 32.2761 75.0606 32C75.0606 31.7239 74.8367 31.5 74.5606 31.5H70.4394ZM78.4394 31.5C78.1633 31.5 77.9394 31.7239 77.9394 32C77.9394 32.2761 78.1633 32.5 78.4394 32.5H82.5606C82.8367 32.5 83.0606 32.2761 83.0606 32C83.0606 31.7239 82.8367 31.5 82.5606 31.5L78.4394 31.5ZM64 77.9394C64 77.6633 64.2239 77.4394 64.5 77.4394C64.7761 77.4394 65 77.6633 65 77.9394V82.0606C65 82.3367 64.7761 82.5606 64.5 82.5606C64.2239 82.5606 64 82.3367 64 82.0606V77.9394ZM64.5 85.4394C64.7761 85.4394 65 85.6633 65 85.9394V90.0606C65 90.3367 64.7761 90.5606 64.5 90.5606C64.2239 90.5606 64 90.3367 64 90.0606V85.9394C64 85.6633 64.2239 85.4394 64.5 85.4394ZM64.5 93.4394C64.7761 93.4394 65 93.6633 65 93.9394V95.5H66.5606C66.8367 95.5 67.0606 95.7239 67.0606 96C67.0606 96.2761 66.8367 96.5 66.5606 96.5H65V98.0606C65 98.3367 64.7761 98.5606 64.5 98.5606C64.2239 98.5606 64 98.3367 64 98.0606V96.5H62.4394C62.1633 96.5 61.9394 96.2761 61.9394 96C61.9394 95.7239 62.1633 95.5 62.4394 95.5H64V93.9394C64 93.6633 64.2239 93.4394 64.5 93.4394ZM64.5 101.439C64.7761 101.439 65 101.663 65 101.939V106.061C65 106.337 64.7761 106.561 64.5 106.561C64.2239 106.561 64 106.337 64 106.061V101.939C64 101.663 64.2239 101.439 64.5 101.439ZM64.5 109.439C64.7761 109.439 65 109.663 65 109.939V114.061C65 114.337 64.7761 114.561 64.5 114.561C64.2239 114.561 64 114.337 64 114.061V109.939C64 109.663 64.2239 109.439 64.5 109.439ZM64.5 117.439C64.7761 117.439 65 117.663 65 117.939V122.061C65 122.337 64.7761 122.561 64.5 122.561C64.2239 122.561 64 122.337 64 122.061V117.939C64 117.663 64.2239 117.439 64.5 117.439ZM64.5 125.439C64.7761 125.439 65 125.663 65 125.939V127.5C65 127.776 64.7761 128 64.5 128C64.2239 128 64 127.776 64 127.5L64 125.939C64 125.663 64.2239 125.439 64.5 125.439ZM46.4394 64.5C46.1633 64.5 45.9394 64.2761 45.9394 64C45.9394 63.7239 46.1633 63.5 46.4394 63.5L50.5606 63.5C50.8368 63.5 51.0606 63.7239 51.0606 64C51.0606 64.2761 50.8368 64.5 50.5606 64.5L46.4394 64.5ZM54.4394 63.5C54.1632 63.5 53.9394 63.7239 53.9394 64C53.9394 64.2761 54.1632 64.5 54.4394 64.5H58.5606C58.8368 64.5 59.0606 64.2761 59.0606 64C59.0606 63.7239 58.8367 63.5 58.5606 63.5H54.4394ZM62.4394 63.5C62.1633 63.5 61.9394 63.7239 61.9394 64C61.9394 64.2761 62.1633 64.5 62.4394 64.5H64V66.0606C64 66.3367 64.2239 66.5606 64.5 66.5606C64.7761 66.5606 65 66.3367 65 66.0606V64.5H66.5606C66.8367 64.5 67.0606 64.2761 67.0606 64C67.0606 63.7239 66.8367 63.5 66.5606 63.5H65V61.9394C65 61.6633 64.7761 61.4394 64.5 61.4394C64.2239 61.4394 64 61.6633 64 61.9394V63.5H62.4394ZM70.4394 63.5C70.1633 63.5 69.9394 63.7239 69.9394 64C69.9394 64.2761 70.1633 64.5 70.4394 64.5H74.5606C74.8367 64.5 75.0606 64.2761 75.0606 64C75.0606 63.7239 74.8367 63.5 74.5606 63.5H70.4394ZM78.4394 63.5C78.1633 63.5 77.9394 63.7239 77.9394 64C77.9394 64.2761 78.1633 64.5 78.4394 64.5L82.5606 64.5C82.8367 64.5 83.0606 64.2761 83.0606 64C83.0606 63.7239 82.8367 63.5 82.5606 63.5H78.4394ZM46.4394 96.5L50.5606 96.5C50.8368 96.5 51.0606 96.2761 51.0606 96C51.0606 95.7239 50.8368 95.5 50.5606 95.5L46.4394 95.5C46.1633 95.5 45.9394 95.7239 45.9394 96C45.9394 96.2761 46.1633 96.5 46.4394 96.5ZM53.9394 96C53.9394 95.7239 54.1632 95.5 54.4394 95.5H58.5606C58.8367 95.5 59.0606 95.7239 59.0606 96C59.0606 96.2761 58.8368 96.5 58.5606 96.5H54.4394C54.1632 96.5 53.9394 96.2761 53.9394 96ZM69.9394 96C69.9394 95.7239 70.1633 95.5 70.4394 95.5H74.5606C74.8367 95.5 75.0606 95.7239 75.0606 96C75.0606 96.2761 74.8367 96.5 74.5606 96.5H70.4394C70.1633 96.5 69.9394 96.2761 69.9394 96ZM77.9394 96C77.9394 95.7239 78.1633 95.5 78.4394 95.5L82.5606 95.5C82.8367 95.5 83.0606 95.7239 83.0606 96C83.0606 96.2761 82.8367 96.5 82.5606 96.5L78.4394 96.5C78.1633 96.5 77.9394 96.2761 77.9394 96ZM65 53.9394C65 53.6632 64.7761 53.4394 64.5 53.4394C64.2239 53.4394 64 53.6632 64 53.9394V58.0606C64 58.3368 64.2239 58.5606 64.5 58.5606C64.7761 58.5606 65 58.3367 65 58.0606V53.9394ZM65 69.9394C65 69.6633 64.7761 69.4394 64.5 69.4394C64.2239 69.4394 64 69.6633 64 69.9394V74.0606C64 74.3367 64.2239 74.5606 64.5 74.5606C64.7761 74.5606 65 74.3367 65 74.0606V69.9394ZM96 45.9394V50.0606C96 50.3368 96.2239 50.5606 96.5 50.5606C96.7761 50.5606 97 50.3368 97 50.0606V45.9394C97 45.6633 96.7761 45.4394 96.5 45.4394C96.2239 45.4394 96 45.6633 96 45.9394ZM96.5 53.4394C96.7761 53.4394 97 53.6632 97 53.9394V58.0606C97 58.3367 96.7761 58.5606 96.5 58.5606C96.2239 58.5606 96 58.3368 96 58.0606V53.9394C96 53.6632 96.2239 53.4394 96.5 53.4394ZM96.5 61.4394C96.7761 61.4394 97 61.6633 97 61.9394V63.5H98.5606C98.8367 63.5 99.0606 63.7239 99.0606 64C99.0606 64.2761 98.8367 64.5 98.5606 64.5H97V66.0606C97 66.3367 96.7761 66.5606 96.5 66.5606C96.2239 66.5606 96 66.3367 96 66.0606V64.5H94.4394C94.1632 64.5 93.9394 64.2761 93.9394 64C93.9394 63.7239 94.1633 63.5 94.4394 63.5H96V61.9394C96 61.6633 96.2239 61.4394 96.5 61.4394ZM96.5 69.4394C96.7761 69.4394 97 69.6633 97 69.9394V74.0606C97 74.3367 96.7761 74.5606 96.5 74.5606C96.2239 74.5606 96 74.3367 96 74.0606V69.9394C96 69.6633 96.2239 69.4394 96.5 69.4394ZM96.5 77.4394C96.7761 77.4394 97 77.6633 97 77.9394V82.0606C97 82.3367 96.7761 82.5606 96.5 82.5606C96.2239 82.5606 96 82.3367 96 82.0606V77.9394C96 77.6633 96.2239 77.4394 96.5 77.4394ZM32 45.9394C32 45.6633 32.2239 45.4394 32.5 45.4394C32.7761 45.4394 33 45.6633 33 45.9394L33 50.0606C33 50.3368 32.7761 50.5606 32.5 50.5606C32.2239 50.5606 32 50.3368 32 50.0606L32 45.9394ZM33 53.9394C33 53.6632 32.7761 53.4394 32.5 53.4394C32.2239 53.4394 32 53.6632 32 53.9394V58.0606C32 58.3368 32.2239 58.5606 32.5 58.5606C32.7761 58.5606 33 58.3367 33 58.0606V53.9394ZM33 61.9394C33 61.6633 32.7761 61.4394 32.5 61.4394C32.2239 61.4394 32 61.6633 32 61.9394V63.5H30.4394C30.1633 63.5 29.9394 63.7239 29.9394 64C29.9394 64.2761 30.1633 64.5 30.4394 64.5H32V66.0606C32 66.3367 32.2239 66.5606 32.5 66.5606C32.7761 66.5606 33 66.3367 33 66.0606V64.5H34.5606C34.8368 64.5 35.0606 64.2761 35.0606 64C35.0606 63.7239 34.8368 63.5 34.5606 63.5H33V61.9394ZM33 69.9394C33 69.6633 32.7761 69.4394 32.5 69.4394C32.2239 69.4394 32 69.6633 32 69.9394V74.0606C32 74.3367 32.2239 74.5606 32.5 74.5606C32.7761 74.5606 33 74.3367 33 74.0606V69.9394ZM33 77.9394C33 77.6633 32.7761 77.4394 32.5 77.4394C32.2239 77.4394 32 77.6633 32 77.9394L32 82.0606C32 82.3367 32.2239 82.5606 32.5 82.5606C32.7761 82.5606 33 82.3367 33 82.0606L33 77.9394ZM0.5 32C0.5 31.7239 0.723858 31.5 1 31.5H2.56061C2.83675 31.5 3.06061 31.7239 3.06061 32C3.06061 32.2761 2.83675 32.5 2.56061 32.5H1C0.723858 32.5 0.5 32.2761 0.5 32ZM5.93939 32C5.93939 31.7239 6.16325 31.5 6.43939 31.5H10.5606C10.8367 31.5 11.0606 31.7239 11.0606 32C11.0606 32.2761 10.8367 32.5 10.5606 32.5H6.43939C6.16325 32.5 5.93939 32.2761 5.93939 32ZM13.9394 32C13.9394 31.7239 14.1633 31.5 14.4394 31.5H18.5606C18.8367 31.5 19.0606 31.7239 19.0606 32C19.0606 32.2761 18.8367 32.5 18.5606 32.5H14.4394C14.1633 32.5 13.9394 32.2761 13.9394 32ZM21.9394 32C21.9394 31.7239 22.1633 31.5 22.4394 31.5H26.5606C26.8367 31.5 27.0606 31.7239 27.0606 32C27.0606 32.2761 26.8367 32.5 26.5606 32.5H22.4394C22.1633 32.5 21.9394 32.2761 21.9394 32ZM29.9394 32C29.9394 31.7239 30.1633 31.5 30.4394 31.5H32V29.9394C32 29.6633 32.2239 29.4394 32.5 29.4394C32.7761 29.4394 33 29.6633 33 29.9394V31.5H34.5606C34.8368 31.5 35.0606 31.7239 35.0606 32C35.0606 32.2761 34.8368 32.5 34.5606 32.5H33V34.0606C33 34.3368 32.7761 34.5606 32.5 34.5606C32.2239 34.5606 32 34.3368 32 34.0606V32.5H30.4394C30.1633 32.5 29.9394 32.2761 29.9394 32ZM37.9394 32C37.9394 31.7239 38.1633 31.5 38.4394 31.5H42.5606C42.8368 31.5 43.0606 31.7239 43.0606 32C43.0606 32.2761 42.8368 32.5 42.5606 32.5H38.4394C38.1633 32.5 37.9394 32.2761 37.9394 32ZM1 63.5C0.723858 63.5 0.5 63.7239 0.5 64C0.5 64.2761 0.723858 64.5 1 64.5H2.56061C2.83675 64.5 3.06061 64.2761 3.06061 64C3.06061 63.7239 2.83675 63.5 2.56061 63.5H1ZM6.43939 63.5C6.16325 63.5 5.93939 63.7239 5.93939 64C5.93939 64.2761 6.16325 64.5 6.43939 64.5H10.5606C10.8367 64.5 11.0606 64.2761 11.0606 64C11.0606 63.7239 10.8367 63.5 10.5606 63.5H6.43939ZM14.4394 63.5C14.1633 63.5 13.9394 63.7239 13.9394 64C13.9394 64.2761 14.1633 64.5 14.4394 64.5H18.5606C18.8367 64.5 19.0606 64.2761 19.0606 64C19.0606 63.7239 18.8367 63.5 18.5606 63.5H14.4394ZM22.4394 63.5C22.1633 63.5 21.9394 63.7239 21.9394 64C21.9394 64.2761 22.1633 64.5 22.4394 64.5H26.5606C26.8367 64.5 27.0606 64.2761 27.0606 64C27.0606 63.7239 26.8367 63.5 26.5606 63.5H22.4394ZM38.4394 63.5C38.1633 63.5 37.9394 63.7239 37.9394 64C37.9394 64.2761 38.1633 64.5 38.4394 64.5H42.5606C42.8368 64.5 43.0606 64.2761 43.0606 64C43.0606 63.7239 42.8368 63.5 42.5606 63.5H38.4394ZM0.5 96C0.5 95.7239 0.723858 95.5 1 95.5H2.56061C2.83675 95.5 3.06061 95.7239 3.06061 96C3.06061 96.2761 2.83675 96.5 2.56061 96.5H1C0.723858 96.5 0.5 96.2761 0.5 96ZM5.93939 96C5.93939 95.7239 6.16325 95.5 6.43939 95.5H10.5606C10.8367 95.5 11.0606 95.7239 11.0606 96C11.0606 96.2761 10.8367 96.5 10.5606 96.5H6.43939C6.16325 96.5 5.93939 96.2761 5.93939 96ZM13.9394 96C13.9394 95.7239 14.1633 95.5 14.4394 95.5H18.5606C18.8367 95.5 19.0606 95.7239 19.0606 96C19.0606 96.2761 18.8367 96.5 18.5606 96.5H14.4394C14.1633 96.5 13.9394 96.2761 13.9394 96ZM21.9394 96C21.9394 95.7239 22.1633 95.5 22.4394 95.5H26.5606C26.8367 95.5 27.0606 95.7239 27.0606 96C27.0606 96.2761 26.8367 96.5 26.5606 96.5H22.4394C22.1633 96.5 21.9394 96.2761 21.9394 96ZM29.9394 96C29.9394 95.7239 30.1633 95.5 30.4394 95.5H32V93.9394C32 93.6632 32.2239 93.4394 32.5 93.4394C32.7761 93.4394 33 93.6633 33 93.9394V95.5H34.5606C34.8368 95.5 35.0606 95.7239 35.0606 96C35.0606 96.2761 34.8368 96.5 34.5606 96.5H33V98.0606C33 98.3367 32.7761 98.5606 32.5 98.5606C32.2239 98.5606 32 98.3367 32 98.0606V96.5H30.4394C30.1633 96.5 29.9394 96.2761 29.9394 96ZM37.9394 96C37.9394 95.7239 38.1633 95.5 38.4394 95.5H42.5606C42.8368 95.5 43.0606 95.7239 43.0606 96C43.0606 96.2761 42.8368 96.5 42.5606 96.5H38.4394C38.1633 96.5 37.9394 96.2761 37.9394 96ZM128 31.5C128.276 31.5 128.5 31.7239 128.5 32C128.5 32.2761 128.276 32.5 128 32.5H126.439C126.163 32.5 125.939 32.2761 125.939 32C125.939 31.7239 126.163 31.5 126.439 31.5H128ZM122.561 31.5C122.837 31.5 123.061 31.7239 123.061 32C123.061 32.2761 122.837 32.5 122.561 32.5H118.439C118.163 32.5 117.939 32.2761 117.939 32C117.939 31.7239 118.163 31.5 118.439 31.5H122.561ZM114.561 31.5C114.837 31.5 115.061 31.7239 115.061 32C115.061 32.2761 114.837 32.5 114.561 32.5H110.439C110.163 32.5 109.939 32.2761 109.939 32C109.939 31.7239 110.163 31.5 110.439 31.5H114.561ZM106.561 31.5C106.837 31.5 107.061 31.7239 107.061 32C107.061 32.2761 106.837 32.5 106.561 32.5H102.439C102.163 32.5 101.939 32.2761 101.939 32C101.939 31.7239 102.163 31.5 102.439 31.5H106.561ZM98.5606 31.5C98.8367 31.5 99.0606 31.7239 99.0606 32C99.0606 32.2761 98.8367 32.5 98.5606 32.5H97V34.0606C97 34.3368 96.7761 34.5606 96.5 34.5606C96.2239 34.5606 96 34.3368 96 34.0606V32.5H94.4394C94.1632 32.5 93.9394 32.2761 93.9394 32C93.9394 31.7239 94.1633 31.5 94.4394 31.5H96V29.9394C96 29.6633 96.2239 29.4394 96.5 29.4394C96.7761 29.4394 97 29.6633 97 29.9394V31.5H98.5606ZM90.5606 31.5C90.8367 31.5 91.0606 31.7239 91.0606 32C91.0606 32.2761 90.8367 32.5 90.5606 32.5H86.4394C86.1632 32.5 85.9394 32.2761 85.9394 32C85.9394 31.7239 86.1633 31.5 86.4394 31.5H90.5606ZM128.5 64C128.5 63.7239 128.276 63.5 128 63.5H126.439C126.163 63.5 125.939 63.7239 125.939 64C125.939 64.2761 126.163 64.5 126.439 64.5H128C128.276 64.5 128.5 64.2761 128.5 64ZM123.061 64C123.061 63.7239 122.837 63.5 122.561 63.5H118.439C118.163 63.5 117.939 63.7239 117.939 64C117.939 64.2761 118.163 64.5 118.439 64.5H122.561C122.837 64.5 123.061 64.2761 123.061 64ZM115.061 64C115.061 63.7239 114.837 63.5 114.561 63.5H110.439C110.163 63.5 109.939 63.7239 109.939 64C109.939 64.2761 110.163 64.5 110.439 64.5H114.561C114.837 64.5 115.061 64.2761 115.061 64ZM107.061 64C107.061 63.7239 106.837 63.5 106.561 63.5H102.439C102.163 63.5 101.939 63.7239 101.939 64C101.939 64.2761 102.163 64.5 102.439 64.5H106.561C106.837 64.5 107.061 64.2761 107.061 64ZM91.0606 64C91.0606 63.7239 90.8367 63.5 90.5606 63.5H86.4394C86.1633 63.5 85.9394 63.7239 85.9394 64C85.9394 64.2761 86.1632 64.5 86.4394 64.5H90.5606C90.8367 64.5 91.0606 64.2761 91.0606 64ZM33 0.5C33 0.223858 32.7761 0 32.5 0C32.2239 0 32 0.223858 32 0.5V2.06061C32 2.33675 32.2239 2.56061 32.5 2.56061C32.7761 2.56061 33 2.33675 33 2.06061V0.5ZM33 5.93939C33 5.66325 32.7761 5.43939 32.5 5.43939C32.2239 5.43939 32 5.66325 32 5.93939V10.0606C32 10.3367 32.2239 10.5606 32.5 10.5606C32.7761 10.5606 33 10.3367 33 10.0606V5.93939ZM33 13.9394C33 13.6633 32.7761 13.4394 32.5 13.4394C32.2239 13.4394 32 13.6633 32 13.9394V18.0606C32 18.3367 32.2239 18.5606 32.5 18.5606C32.7761 18.5606 33 18.3367 33 18.0606V13.9394ZM33 21.9394C33 21.6633 32.7761 21.4394 32.5 21.4394C32.2239 21.4394 32 21.6633 32 21.9394V26.0606C32 26.3367 32.2239 26.5606 32.5 26.5606C32.7761 26.5606 33 26.3367 33 26.0606V21.9394ZM33 37.9394C33 37.6633 32.7761 37.4394 32.5 37.4394C32.2239 37.4394 32 37.6633 32 37.9394V42.0606C32 42.3368 32.2239 42.5606 32.5 42.5606C32.7761 42.5606 33 42.3368 33 42.0606V37.9394ZM96.5 0C96.2239 0 96 0.223858 96 0.5V2.06061C96 2.33675 96.2239 2.56061 96.5 2.56061C96.7761 2.56061 97 2.33675 97 2.06061V0.5C97 0.223858 96.7761 0 96.5 0ZM96.5 5.43939C96.2239 5.43939 96 5.66325 96 5.93939V10.0606C96 10.3367 96.2239 10.5606 96.5 10.5606C96.7761 10.5606 97 10.3367 97 10.0606V5.93939C97 5.66325 96.7761 5.43939 96.5 5.43939ZM96.5 13.4394C96.2239 13.4394 96 13.6633 96 13.9394V18.0606C96 18.3367 96.2239 18.5606 96.5 18.5606C96.7761 18.5606 97 18.3367 97 18.0606V13.9394C97 13.6633 96.7761 13.4394 96.5 13.4394ZM96.5 21.4394C96.2239 21.4394 96 21.6633 96 21.9394V26.0606C96 26.3367 96.2239 26.5606 96.5 26.5606C96.7761 26.5606 97 26.3367 97 26.0606V21.9394C97 21.6633 96.7761 21.4394 96.5 21.4394ZM96.5 37.4394C96.2239 37.4394 96 37.6633 96 37.9394V42.0606C96 42.3368 96.2239 42.5606 96.5 42.5606C96.7761 42.5606 97 42.3368 97 42.0606V37.9394C97 37.6633 96.7761 37.4394 96.5 37.4394ZM33 127.5C33 127.776 32.7761 128 32.5 128C32.2239 128 32 127.776 32 127.5V125.939C32 125.663 32.2239 125.439 32.5 125.439C32.7761 125.439 33 125.663 33 125.939V127.5ZM33 122.061C33 122.337 32.7761 122.561 32.5 122.561C32.2239 122.561 32 122.337 32 122.061V117.939C32 117.663 32.2239 117.439 32.5 117.439C32.7761 117.439 33 117.663 33 117.939V122.061ZM33 114.061C33 114.337 32.7761 114.561 32.5 114.561C32.2239 114.561 32 114.337 32 114.061V109.939C32 109.663 32.2239 109.439 32.5 109.439C32.7761 109.439 33 109.663 33 109.939V114.061ZM33 106.061C33 106.337 32.7761 106.561 32.5 106.561C32.2239 106.561 32 106.337 32 106.061V101.939C32 101.663 32.2239 101.439 32.5 101.439C32.7761 101.439 33 101.663 33 101.939L33 106.061ZM33 90.0606C33 90.3367 32.7761 90.5606 32.5 90.5606C32.2239 90.5606 32 90.3367 32 90.0606L32 85.9394C32 85.6632 32.2239 85.4394 32.5 85.4394C32.7761 85.4394 33 85.6633 33 85.9394V90.0606ZM96.5 128C96.2239 128 96 127.776 96 127.5V125.939C96 125.663 96.2239 125.439 96.5 125.439C96.7761 125.439 97 125.663 97 125.939V127.5C97 127.776 96.7761 128 96.5 128ZM96.5 122.561C96.2239 122.561 96 122.337 96 122.061V117.939C96 117.663 96.2239 117.439 96.5 117.439C96.7761 117.439 97 117.663 97 117.939V122.061C97 122.337 96.7761 122.561 96.5 122.561ZM96.5 114.561C96.2239 114.561 96 114.337 96 114.061V109.939C96 109.663 96.2239 109.439 96.5 109.439C96.7761 109.439 97 109.663 97 109.939V114.061C97 114.337 96.7761 114.561 96.5 114.561ZM96.5 106.561C96.2239 106.561 96 106.337 96 106.061V101.939C96 101.663 96.2239 101.439 96.5 101.439C96.7761 101.439 97 101.663 97 101.939V106.061C97 106.337 96.7761 106.561 96.5 106.561ZM96.5 98.5606C96.2239 98.5606 96 98.3367 96 98.0606V96.5H94.4394C94.1632 96.5 93.9394 96.2761 93.9394 96C93.9394 95.7239 94.1633 95.5 94.4394 95.5H96V93.9394C96 93.6633 96.2239 93.4394 96.5 93.4394C96.7761 93.4394 97 93.6632 97 93.9394V95.5H98.5606C98.8367 95.5 99.0606 95.7239 99.0606 96C99.0606 96.2761 98.8367 96.5 98.5606 96.5H97V98.0606C97 98.3367 96.7761 98.5606 96.5 98.5606ZM96.5 90.5606C96.2239 90.5606 96 90.3367 96 90.0606V85.9394C96 85.6633 96.2239 85.4394 96.5 85.4394C96.7761 85.4394 97 85.6632 97 85.9394V90.0606C97 90.3367 96.7761 90.5606 96.5 90.5606ZM128 95.5C128.276 95.5 128.5 95.7239 128.5 96C128.5 96.2761 128.276 96.5 128 96.5H126.439C126.163 96.5 125.939 96.2761 125.939 96C125.939 95.7239 126.163 95.5 126.439 95.5H128ZM122.561 95.5C122.837 95.5 123.061 95.7239 123.061 96C123.061 96.2761 122.837 96.5 122.561 96.5H118.439C118.163 96.5 117.939 96.2761 117.939 96C117.939 95.7239 118.163 95.5 118.439 95.5H122.561ZM114.561 95.5C114.837 95.5 115.061 95.7239 115.061 96C115.061 96.2761 114.837 96.5 114.561 96.5H110.439C110.163 96.5 109.939 96.2761 109.939 96C109.939 95.7239 110.163 95.5 110.439 95.5H114.561ZM106.561 95.5C106.837 95.5 107.061 95.7239 107.061 96C107.061 96.2761 106.837 96.5 106.561 96.5H102.439C102.163 96.5 101.939 96.2761 101.939 96C101.939 95.7239 102.163 95.5 102.439 95.5H106.561ZM90.5606 95.5C90.8367 95.5 91.0606 95.7239 91.0606 96C91.0606 96.2761 90.8367 96.5 90.5606 96.5H86.4394C86.1632 96.5 85.9394 96.2761 85.9394 96C85.9394 95.7239 86.1633 95.5 86.4394 95.5H90.5606Z" fill="#E6E6E6"/>
</svg>
