<svg width="100" height="100" viewBox="0 0 100 100" fill="none" xmlns="http://www.w3.org/2000/svg">
<mask id="path-1-inside-1_1628_117631" fill="white">
<path d="M0.5 10.0401C0.5 8.46404 1.12015 6.95123 2.22644 5.82864L6.30084 1.69418L72.1483 41.4801C73.0252 42.0099 73.7518 42.7554 74.2589 43.6456L98.5 86.1997L94.0448 90.4916C92.9267 91.5687 91.4346 92.1705 89.8821 92.1705H35.3319C33.315 92.1705 31.3499 92.7841 29.6556 93.8785C27.0468 95.5636 23.1002 97.9901 20.9375 98.7185C17.1912 99.9803 11.0879 100.032 8.52902 99.9912C8.08589 99.9842 7.89025 99.4515 8.21907 99.1543C11.0531 96.5934 13.6194 94.5976 14.8355 92.4571C14.9092 92.3273 14.8131 92.1705 14.6639 92.1705H8.74999C4.19364 92.1705 0.5 88.4768 0.5 83.9205L0.5 10.0401Z"/>
</mask>
<path d="M0.5 10.0401C0.5 8.46404 1.12015 6.95123 2.22644 5.82864L6.30084 1.69418L72.1483 41.4801C73.0252 42.0099 73.7518 42.7554 74.2589 43.6456L98.5 86.1997L94.0448 90.4916C92.9267 91.5687 91.4346 92.1705 89.8821 92.1705H35.3319C33.315 92.1705 31.3499 92.7841 29.6556 93.8785C27.0468 95.5636 23.1002 97.9901 20.9375 98.7185C17.1912 99.9803 11.0879 100.032 8.52902 99.9912C8.08589 99.9842 7.89025 99.4515 8.21907 99.1543C11.0531 96.5934 13.6194 94.5976 14.8355 92.4571C14.9092 92.3273 14.8131 92.1705 14.6639 92.1705H8.74999C4.19364 92.1705 0.5 88.4768 0.5 83.9205L0.5 10.0401Z" fill="#F0F7FA"/>
<path d="M20.9375 98.7185L20.6183 97.7708L20.9375 98.7185ZM6.30084 1.69418L6.81798 0.838286L6.14252 0.430161L5.58857 0.992268L6.30084 1.69418ZM98.5 86.1997L99.1938 86.9199L99.7538 86.3804L99.3689 85.7047L98.5 86.1997ZM8.21907 99.1543L8.88952 99.8963L8.21907 99.1543ZM8.52902 99.9912L8.51311 100.991L8.52902 99.9912ZM29.6556 93.8785L29.113 93.0385L29.6556 93.8785ZM14.8355 92.4571L15.705 92.951L14.8355 92.4571ZM94.0448 90.4916L94.7386 91.2118L94.0448 90.4916ZM72.1483 41.4801L71.6312 42.336L72.1483 41.4801ZM74.2589 43.6456L75.1278 43.1507L74.2589 43.6456ZM1.5 83.9205L1.5 10.0401H-0.5L-0.5 83.9205H1.5ZM89.8821 91.1705H35.3319V93.1705H89.8821V91.1705ZM8.88952 99.8963C10.2656 98.6528 11.6683 97.466 12.8215 96.3743C13.9874 95.2705 15.0216 94.154 15.705 92.951L13.966 91.9631C13.4334 92.9007 12.5763 93.8523 11.4465 94.9219C10.3041 96.0034 9.00656 97.095 7.54863 98.4124L8.88952 99.8963ZM29.113 93.0385C27.816 93.8763 26.1934 94.8938 24.6316 95.7899C23.0503 96.6972 21.5977 97.4409 20.6183 97.7708L21.2567 99.6662C22.44 99.2676 24.0421 98.4339 25.627 97.5246C27.2314 96.6041 28.8865 95.5658 30.1982 94.7185L29.113 93.0385ZM20.6183 97.7708C18.8683 98.3602 16.5082 98.6819 14.2166 98.8459C11.9421 99.0086 9.80808 99.0115 8.54493 98.9914L8.51311 100.991C9.80881 101.012 12.0058 101.009 14.3593 100.841C16.6957 100.674 19.2604 100.339 21.2567 99.6662L20.6183 97.7708ZM14.6639 91.1705H8.74999V93.1705H14.6639V91.1705ZM2.9387 6.53055L7.0131 2.3961L5.58857 0.992268L1.51418 5.12672L2.9387 6.53055ZM5.78369 2.55008L71.6312 42.336L72.6655 40.6242L6.81798 0.838286L5.78369 2.55008ZM73.39 44.1406L97.6311 86.6947L99.3689 85.7047L75.1278 43.1507L73.39 44.1406ZM97.8062 85.4795L93.351 89.7714L94.7386 91.2118L99.1938 86.9199L97.8062 85.4795ZM7.54863 98.4124C6.56201 99.3039 7.14125 100.969 8.51311 100.991L8.54493 98.9914C9.03052 98.9991 9.21848 99.5991 8.88952 99.8963L7.54863 98.4124ZM35.3319 91.1705C33.1112 91.1705 30.9592 91.8459 29.113 93.0385L30.1982 94.7185C31.7405 93.7223 33.5187 93.1705 35.3319 93.1705V91.1705ZM15.705 92.951C16.1785 92.1175 15.5367 91.1705 14.6639 91.1705V93.1705C14.0895 93.1705 13.6399 92.5371 13.966 91.9631L15.705 92.951ZM-0.5 83.9205C-0.5 89.0291 3.64136 93.1705 8.74999 93.1705V91.1705C4.74593 91.1705 1.5 87.9245 1.5 83.9205H-0.5ZM89.8821 93.1705C91.6934 93.1705 93.4341 92.4684 94.7386 91.2118L93.351 89.7714C92.4193 90.669 91.1759 91.1705 89.8821 91.1705V93.1705ZM71.6312 42.336C72.3619 42.7775 72.9674 43.3988 73.39 44.1406L75.1278 43.1507C74.5362 42.1121 73.6885 41.2423 72.6655 40.6242L71.6312 42.336ZM1.5 10.0401C1.5 8.72672 2.01679 7.46604 2.9387 6.53055L1.51418 5.12672C0.22351 6.43641 -0.5 8.20135 -0.5 10.0401H1.5Z" fill="#CCCCCC" mask="url(#path-1-inside-1_1628_117631)"/>
<mask id="path-3-inside-2_1628_117631" fill="white">
<path d="M4 6C4 2.68629 6.68629 0 10 0H94C97.3137 0 100 2.68629 100 6V82.2185C100 85.5322 97.3137 88.2185 94 88.2185H42.2638C40.3325 88.2185 38.4472 88.7807 36.8012 89.7908C34.2277 91.37 30.2988 93.6714 28.1248 94.4036C24.4228 95.6505 18.2002 96.1335 15.4867 96.2914C15.0249 96.3183 14.7972 95.7608 15.1362 95.4461C17.4888 93.2619 18.854 91.9079 19.3501 89.3046C19.4602 88.7267 18.9925 88.2185 18.4042 88.2185H10C6.68629 88.2185 4 85.5322 4 82.2185V6Z"/>
</mask>
<path d="M4 6C4 2.68629 6.68629 0 10 0H94C97.3137 0 100 2.68629 100 6V82.2185C100 85.5322 97.3137 88.2185 94 88.2185H42.2638C40.3325 88.2185 38.4472 88.7807 36.8012 89.7908C34.2277 91.37 30.2988 93.6714 28.1248 94.4036C24.4228 95.6505 18.2002 96.1335 15.4867 96.2914C15.0249 96.3183 14.7972 95.7608 15.1362 95.4461C17.4888 93.2619 18.854 91.9079 19.3501 89.3046C19.4602 88.7267 18.9925 88.2185 18.4042 88.2185H10C6.68629 88.2185 4 85.5322 4 82.2185V6Z" fill="white"/>
<path d="M28.1248 94.4036L27.8056 93.4559L28.1248 94.4036ZM15.1362 95.4461L15.8166 96.1789L15.1362 95.4461ZM15.4867 96.2914L15.5448 97.2898L15.4867 96.2914ZM36.8012 89.7908L36.2781 88.9385L36.8012 89.7908ZM19.3501 89.3046L18.3678 89.1174L19.3501 89.3046ZM10 1H94V-1H10V1ZM99 6V82.2185H101V6H99ZM5 82.2185V6H3V82.2185H5ZM18.4042 87.2185H10V89.2185H18.4042V87.2185ZM94 87.2185H42.2638V89.2185H94V87.2185ZM15.8166 96.1789C18.1592 94.004 19.7685 92.4514 20.3324 89.4918L18.3678 89.1174C17.9396 91.3644 16.8183 92.5199 14.4558 94.7132L15.8166 96.1789ZM36.2781 88.9385C33.6749 90.536 29.8499 92.7674 27.8056 93.4559L28.444 95.3513C30.7477 94.5754 34.7805 92.2041 37.3242 90.6431L36.2781 88.9385ZM27.8056 93.4559C24.2517 94.6529 18.1645 95.1339 15.4286 95.2931L15.5448 97.2898C18.2359 97.1331 24.594 96.6481 28.444 95.3513L27.8056 93.4559ZM14.4558 94.7132C13.4651 95.633 14.0989 97.3739 15.5448 97.2898L15.4286 95.2931C15.9509 95.2627 16.1292 95.8887 15.8166 96.1789L14.4558 94.7132ZM42.2638 87.2185C40.1376 87.2185 38.0726 87.8373 36.2781 88.9385L37.3242 90.6431C38.8219 89.7241 40.5274 89.2185 42.2638 89.2185V87.2185ZM18.4042 89.2185C18.4073 89.2185 18.4006 89.2193 18.3908 89.2082C18.3853 89.202 18.3769 89.1899 18.3714 89.1708C18.3653 89.15 18.3653 89.1301 18.3678 89.1174L20.3324 89.4918C20.5731 88.2286 19.5475 87.2185 18.4042 87.2185V89.2185ZM3 82.2185C3 86.0845 6.13401 89.2185 10 89.2185V87.2185C7.23858 87.2185 5 84.9799 5 82.2185H3ZM99 82.2185C99 84.9799 96.7614 87.2185 94 87.2185V89.2185C97.866 89.2185 101 86.0845 101 82.2185H99ZM94 1C96.7614 1 99 3.23858 99 6H101C101 2.13401 97.866 -1 94 -1V1ZM10 -1C6.13401 -1 3 2.13401 3 6H5C5 3.23858 7.23858 1 10 1V-1Z" fill="#CCCCCC" mask="url(#path-3-inside-2_1628_117631)"/>
<path d="M16 95.5L9.39605 99.0881" stroke="#CCCCCC"/>
</svg>
