<svg width="100" height="100" viewBox="0 0 100 100" fill="none" xmlns="http://www.w3.org/2000/svg">
<path fill-rule="evenodd" clip-rule="evenodd" d="M10 0C6.68629 0 4 2.68629 4 6V90C4 93.3137 6.68629 96 10 96H94C97.3137 96 100 93.3137 100 90V6C100 2.68629 97.3137 0 94 0H10ZM0 10C0 7.96827 1.00986 6.17239 2.55502 5.08694C2.5187 5.38622 2.5 5.69093 2.5 6.00001V90C2.5 94.1421 5.85786 97.5 10 97.5H94C94.3091 97.5 94.6138 97.4813 94.9131 97.445C93.8276 98.9902 92.0317 100 90 100H8C3.58172 100 0 96.4183 0 92V10Z" fill="#DC143C"/>
</svg>
